<?xml version="1.0" encoding="UTF-8" standalone="no"?>
<!DOCTYPE svg PUBLIC "-//W3C//DTD SVG 1.1//EN"
 "http://www.w3.org/Graphics/SVG/1.1/DTD/svg11.dtd">
<!-- Generated by graphviz version 2.47.0 (20210316.0004)
 -->
<!-- Title: dbml Pages: 1 -->
<svg width="1725pt" height="3256pt"
 viewBox="0.00 0.00 1724.73 3256.22" xmlns="http://www.w3.org/2000/svg" xmlns:xlink="http://www.w3.org/1999/xlink">
<g id="graph0" class="graph" transform="scale(1 1) rotate(0) translate(4 3252.22)">
<title>dbml</title>
<!-- Category -->
<g id="Category" class="node">
<title>Category</title>
<ellipse fill="none" stroke="black" stroke-width="0" cx="305.47" cy="-130.11" rx="210.02" ry="130.22"/>
<polygon fill="#1d71b8" stroke="transparent" points="159.47,-160.11 159.47,-220.11 452.47,-220.11 452.47,-160.11 159.47,-160.11"/>
<polygon fill="none" stroke="#29235c" points="159.47,-160.11 159.47,-220.11 452.47,-220.11 452.47,-160.11 159.47,-160.11"/>
<text text-anchor="start" x="178.82" y="-181.31" font-family="Helvetica,sans-Serif" font-weight="bold" font-size="32.00" fill="#ffffff"> &#160;&#160;&#160;&#160;&#160;&#160;Category &#160;&#160;&#160;&#160;&#160;&#160;</text>
<polygon fill="#e7e2dd" stroke="transparent" points="159.47,-100.11 159.47,-160.11 452.47,-160.11 452.47,-100.11 159.47,-100.11"/>
<polygon fill="none" stroke="#29235c" points="159.47,-100.11 159.47,-160.11 452.47,-160.11 452.47,-100.11 159.47,-100.11"/>
<text text-anchor="start" x="170.47" y="-121.31" font-family="Helvetica,sans-Serif" font-weight="bold" font-size="32.00" fill="#29235c">id</text>
<text text-anchor="start" x="195.36" y="-121.31" font-family="Helvetica,sans-Serif" font-size="32.00" fill="#29235c"> &#160;&#160;&#160;</text>
<text text-anchor="start" x="299.25" y="-121.31" font-family="Helvetica,sans-Serif" font-style="italic" font-size="32.00" fill="#29235c">INTEGER</text>
<polygon fill="#e7e2dd" stroke="transparent" points="159.47,-40.11 159.47,-100.11 452.47,-100.11 452.47,-40.11 159.47,-40.11"/>
<polygon fill="none" stroke="#29235c" points="159.47,-40.11 159.47,-100.11 452.47,-100.11 452.47,-40.11 159.47,-40.11"/>
<text text-anchor="start" x="170.17" y="-60.31" font-family="Helvetica,sans-Serif" font-size="32.00" fill="#29235c">name &#160;&#160;&#160;</text>
<text text-anchor="start" x="285.26" y="-61.31" font-family="Helvetica,sans-Serif" font-style="italic" font-size="32.00" fill="#29235c">VARCHAR</text>
<polygon fill="none" stroke="#29235c" stroke-width="2" points="157.97,-39.11 157.97,-221.11 452.97,-221.11 452.97,-39.11 157.97,-39.11"/>
</g>
<!-- Customer -->
<g id="Customer" class="node">
<title>Customer</title>
<ellipse fill="none" stroke="black" stroke-width="0" cx="1492.58" cy="-625.11" rx="224.31" ry="214.92"/>
<polygon fill="#1d71b8" stroke="transparent" points="1336.58,-715.11 1336.58,-775.11 1649.58,-775.11 1649.58,-715.11 1336.58,-715.11"/>
<polygon fill="none" stroke="#29235c" points="1336.58,-715.11 1336.58,-775.11 1649.58,-775.11 1649.58,-715.11 1336.58,-715.11"/>
<text text-anchor="start" x="1361.5" y="-736.31" font-family="Helvetica,sans-Serif" font-weight="bold" font-size="32.00" fill="#ffffff"> &#160;&#160;&#160;&#160;&#160;&#160;Customer &#160;&#160;&#160;&#160;&#160;&#160;</text>
<polygon fill="#e7e2dd" stroke="transparent" points="1336.58,-655.11 1336.58,-715.11 1649.58,-715.11 1649.58,-655.11 1336.58,-655.11"/>
<polygon fill="none" stroke="#29235c" points="1336.58,-655.11 1336.58,-715.11 1649.58,-715.11 1649.58,-655.11 1336.58,-655.11"/>
<text text-anchor="start" x="1347.58" y="-676.31" font-family="Helvetica,sans-Serif" font-weight="bold" font-size="32.00" fill="#29235c">id</text>
<text text-anchor="start" x="1372.47" y="-676.31" font-family="Helvetica,sans-Serif" font-size="32.00" fill="#29235c"> &#160;&#160;&#160;</text>
<text text-anchor="start" x="1496.36" y="-676.31" font-family="Helvetica,sans-Serif" font-style="italic" font-size="32.00" fill="#29235c">INTEGER</text>
<polygon fill="#e7e2dd" stroke="transparent" points="1336.58,-595.11 1336.58,-655.11 1649.58,-655.11 1649.58,-595.11 1336.58,-595.11"/>
<polygon fill="none" stroke="#29235c" points="1336.58,-595.11 1336.58,-655.11 1649.58,-655.11 1649.58,-595.11 1336.58,-595.11"/>
<text text-anchor="start" x="1347.58" y="-615.31" font-family="Helvetica,sans-Serif" font-size="32.00" fill="#29235c">name &#160;&#160;&#160;</text>
<text text-anchor="start" x="1482.15" y="-616.31" font-family="Helvetica,sans-Serif" font-style="italic" font-size="32.00" fill="#29235c">VARCHAR</text>
<polygon fill="#e7e2dd" stroke="transparent" points="1336.58,-535.11 1336.58,-595.11 1649.58,-595.11 1649.58,-535.11 1336.58,-535.11"/>
<polygon fill="none" stroke="#29235c" points="1336.58,-535.11 1336.58,-595.11 1649.58,-595.11 1649.58,-535.11 1336.58,-535.11"/>
<text text-anchor="start" x="1347.58" y="-555.31" font-family="Helvetica,sans-Serif" font-size="32.00" fill="#29235c">balance &#160;&#160;&#160;</text>
<text text-anchor="start" x="1535.46" y="-556.31" font-family="Helvetica,sans-Serif" font-style="italic" font-size="32.00" fill="#29235c">FLOAT</text>
<polygon fill="#e7e2dd" stroke="transparent" points="1336.58,-475.11 1336.58,-535.11 1649.58,-535.11 1649.58,-475.11 1336.58,-475.11"/>
<polygon fill="none" stroke="#29235c" points="1336.58,-475.11 1336.58,-535.11 1649.58,-535.11 1649.58,-475.11 1336.58,-475.11"/>
<text text-anchor="start" x="1347.36" y="-495.31" font-family="Helvetica,sans-Serif" font-size="32.00" fill="#29235c">credit_limit &#160;&#160;&#160;</text>
<text text-anchor="start" x="1535.52" y="-496.31" font-family="Helvetica,sans-Serif" font-style="italic" font-size="32.00" fill="#29235c">FLOAT</text>
<polygon fill="none" stroke="#29235c" stroke-width="2" points="1335.08,-474.11 1335.08,-776.11 1650.08,-776.11 1650.08,-474.11 1335.08,-474.11"/>
</g>
<!-- Employee -->
<g id="Employee" class="node">
<title>Employee</title>
<ellipse fill="none" stroke="black" stroke-width="0" cx="305.47" cy="-2284.11" rx="210.02" ry="130.22"/>
<polygon fill="#1d71b8" stroke="transparent" points="159.47,-2314.11 159.47,-2374.11 452.47,-2374.11 452.47,-2314.11 159.47,-2314.11"/>
<polygon fill="none" stroke="#29235c" points="159.47,-2314.11 159.47,-2374.11 452.47,-2374.11 452.47,-2314.11 159.47,-2314.11"/>
<text text-anchor="start" x="172.6" y="-2335.31" font-family="Helvetica,sans-Serif" font-weight="bold" font-size="32.00" fill="#ffffff"> &#160;&#160;&#160;&#160;&#160;&#160;Employee &#160;&#160;&#160;&#160;&#160;&#160;</text>
<polygon fill="#e7e2dd" stroke="transparent" points="159.47,-2254.11 159.47,-2314.11 452.47,-2314.11 452.47,-2254.11 159.47,-2254.11"/>
<polygon fill="none" stroke="#29235c" points="159.47,-2254.11 159.47,-2314.11 452.47,-2314.11 452.47,-2254.11 159.47,-2254.11"/>
<text text-anchor="start" x="170.47" y="-2275.31" font-family="Helvetica,sans-Serif" font-weight="bold" font-size="32.00" fill="#29235c">id</text>
<text text-anchor="start" x="195.36" y="-2275.31" font-family="Helvetica,sans-Serif" font-size="32.00" fill="#29235c"> &#160;&#160;&#160;</text>
<text text-anchor="start" x="299.25" y="-2275.31" font-family="Helvetica,sans-Serif" font-style="italic" font-size="32.00" fill="#29235c">INTEGER</text>
<polygon fill="#e7e2dd" stroke="transparent" points="159.47,-2194.11 159.47,-2254.11 452.47,-2254.11 452.47,-2194.11 159.47,-2194.11"/>
<polygon fill="none" stroke="#29235c" points="159.47,-2194.11 159.47,-2254.11 452.47,-2254.11 452.47,-2194.11 159.47,-2194.11"/>
<text text-anchor="start" x="170.17" y="-2214.31" font-family="Helvetica,sans-Serif" font-size="32.00" fill="#29235c">name &#160;&#160;&#160;</text>
<text text-anchor="start" x="285.26" y="-2215.31" font-family="Helvetica,sans-Serif" font-style="italic" font-size="32.00" fill="#29235c">VARCHAR</text>
<polygon fill="none" stroke="#29235c" stroke-width="2" points="157.97,-2193.11 157.97,-2375.11 452.97,-2375.11 452.97,-2193.11 157.97,-2193.11"/>
</g>
<!-- Inventory -->
<g id="Inventory" class="node">
<title>Inventory</title>
<ellipse fill="none" stroke="black" stroke-width="0" cx="305.47" cy="-983.11" rx="248.8" ry="172.57"/>
<polygon fill="#1d71b8" stroke="transparent" points="131.47,-1043.11 131.47,-1103.11 479.47,-1103.11 479.47,-1043.11 131.47,-1043.11"/>
<polygon fill="none" stroke="#29235c" points="131.47,-1043.11 131.47,-1103.11 479.47,-1103.11 479.47,-1043.11 131.47,-1043.11"/>
<text text-anchor="start" x="177.42" y="-1064.31" font-family="Helvetica,sans-Serif" font-weight="bold" font-size="32.00" fill="#ffffff"> &#160;&#160;&#160;&#160;&#160;&#160;Inventory &#160;&#160;&#160;&#160;&#160;&#160;</text>
<polygon fill="#e7e2dd" stroke="transparent" points="131.47,-983.11 131.47,-1043.11 479.47,-1043.11 479.47,-983.11 131.47,-983.11"/>
<polygon fill="none" stroke="#29235c" points="131.47,-983.11 131.47,-1043.11 479.47,-1043.11 479.47,-983.11 131.47,-983.11"/>
<text text-anchor="start" x="142.47" y="-1004.31" font-family="Helvetica,sans-Serif" font-weight="bold" font-size="32.00" fill="#29235c">id</text>
<text text-anchor="start" x="167.36" y="-1004.31" font-family="Helvetica,sans-Serif" font-size="32.00" fill="#29235c"> &#160;&#160;&#160;</text>
<text text-anchor="start" x="326.25" y="-1004.31" font-family="Helvetica,sans-Serif" font-style="italic" font-size="32.00" fill="#29235c">INTEGER</text>
<polygon fill="#e7e2dd" stroke="transparent" points="131.47,-923.11 131.47,-983.11 479.47,-983.11 479.47,-923.11 131.47,-923.11"/>
<polygon fill="none" stroke="#29235c" points="131.47,-923.11 131.47,-983.11 479.47,-983.11 479.47,-923.11 131.47,-923.11"/>
<text text-anchor="start" x="141.99" y="-943.31" font-family="Helvetica,sans-Serif" font-size="32.00" fill="#29235c">product_id &#160;&#160;&#160;</text>
<text text-anchor="start" x="326.36" y="-944.31" font-family="Helvetica,sans-Serif" font-style="italic" font-size="32.00" fill="#29235c">INTEGER</text>
<polygon fill="#e7e2dd" stroke="transparent" points="131.47,-863.11 131.47,-923.11 479.47,-923.11 479.47,-863.11 131.47,-863.11"/>
<polygon fill="none" stroke="#29235c" points="131.47,-863.11 131.47,-923.11 479.47,-923.11 479.47,-863.11 131.47,-863.11"/>
<text text-anchor="start" x="142.47" y="-883.31" font-family="Helvetica,sans-Serif" font-size="32.00" fill="#29235c">quantity &#160;&#160;&#160;</text>
<text text-anchor="start" x="326.25" y="-884.31" font-family="Helvetica,sans-Serif" font-style="italic" font-size="32.00" fill="#29235c">INTEGER</text>
<polygon fill="none" stroke="#29235c" stroke-width="2" points="130.47,-862.11 130.47,-1104.11 480.47,-1104.11 480.47,-862.11 130.47,-862.11"/>
</g>
<!-- Product -->
<g id="Product" class="node">
<title>Product</title>
<ellipse fill="none" stroke="black" stroke-width="0" cx="939.68" cy="-983.11" rx="214.01" ry="172.57"/>
<polygon fill="#1d71b8" stroke="transparent" points="790.68,-1043.11 790.68,-1103.11 1089.68,-1103.11 1089.68,-1043.11 790.68,-1043.11"/>
<polygon fill="none" stroke="#29235c" points="790.68,-1043.11 790.68,-1103.11 1089.68,-1103.11 1089.68,-1043.11 790.68,-1043.11"/>
<text text-anchor="start" x="822.81" y="-1064.31" font-family="Helvetica,sans-Serif" font-weight="bold" font-size="32.00" fill="#ffffff"> &#160;&#160;&#160;&#160;&#160;&#160;Product &#160;&#160;&#160;&#160;&#160;&#160;</text>
<polygon fill="#e7e2dd" stroke="transparent" points="790.68,-983.11 790.68,-1043.11 1089.68,-1043.11 1089.68,-983.11 790.68,-983.11"/>
<polygon fill="none" stroke="#29235c" points="790.68,-983.11 790.68,-1043.11 1089.68,-1043.11 1089.68,-983.11 790.68,-983.11"/>
<text text-anchor="start" x="801.68" y="-1004.31" font-family="Helvetica,sans-Serif" font-weight="bold" font-size="32.00" fill="#29235c">id</text>
<text text-anchor="start" x="826.57" y="-1004.31" font-family="Helvetica,sans-Serif" font-size="32.00" fill="#29235c"> &#160;&#160;&#160;</text>
<text text-anchor="start" x="936.46" y="-1004.31" font-family="Helvetica,sans-Serif" font-style="italic" font-size="32.00" fill="#29235c">INTEGER</text>
<polygon fill="#e7e2dd" stroke="transparent" points="790.68,-923.11 790.68,-983.11 1089.68,-983.11 1089.68,-923.11 790.68,-923.11"/>
<polygon fill="none" stroke="#29235c" points="790.68,-923.11 790.68,-983.11 1089.68,-983.11 1089.68,-923.11 790.68,-923.11"/>
<text text-anchor="start" x="801.68" y="-943.31" font-family="Helvetica,sans-Serif" font-size="32.00" fill="#29235c">name &#160;&#160;&#160;</text>
<text text-anchor="start" x="922.26" y="-944.31" font-family="Helvetica,sans-Serif" font-style="italic" font-size="32.00" fill="#29235c">VARCHAR</text>
<polygon fill="#e7e2dd" stroke="transparent" points="790.68,-863.11 790.68,-923.11 1089.68,-923.11 1089.68,-863.11 790.68,-863.11"/>
<polygon fill="none" stroke="#29235c" points="790.68,-863.11 790.68,-923.11 1089.68,-923.11 1089.68,-863.11 790.68,-863.11"/>
<text text-anchor="start" x="801.55" y="-883.31" font-family="Helvetica,sans-Serif" font-size="32.00" fill="#29235c">unit_price &#160;&#160;&#160;</text>
<text text-anchor="start" x="975.62" y="-884.31" font-family="Helvetica,sans-Serif" font-style="italic" font-size="32.00" fill="#29235c">FLOAT</text>
<polygon fill="none" stroke="#29235c" stroke-width="2" points="789.18,-862.11 789.18,-1104.11 1090.18,-1104.11 1090.18,-862.11 789.18,-862.11"/>
</g>
<!-- Inventory&#45;&gt;Product -->
<!-- Inventory&#45;&gt;Product -->
<g id="edge2" class="edge">
<title>Inventory:e&#45;&gt;Product:w</title>
<path fill="none" stroke="#29235c" stroke-width="3" d="M480.47,-953.11C617.04,-953.11 648.2,-1010.21 779.62,-1013"/>
<polygon fill="#29235c" stroke="#29235c" stroke-width="3" points="779.65,-1016.5 789.68,-1013.11 779.72,-1009.5 779.65,-1016.5"/>
<text text-anchor="middle" x="783.46" y="-984.31" font-family="Helvetica,sans-Serif" font-size="32.00" fill="#29235c">*</text>
<text text-anchor="middle" x="471.58" y="-924.31" font-family="Helvetica,sans-Serif" font-size="32.00" fill="#29235c">1</text>
</g>
<!-- Item -->
<g id="Item" class="node">
<title>Item</title>
<ellipse fill="none" stroke="black" stroke-width="0" cx="305.47" cy="-1473.11" rx="248.8" ry="299.63"/>
<polygon fill="#1d71b8" stroke="transparent" points="131.47,-1623.11 131.47,-1683.11 479.47,-1683.11 479.47,-1623.11 131.47,-1623.11"/>
<polygon fill="none" stroke="#29235c" points="131.47,-1623.11 131.47,-1683.11 479.47,-1683.11 479.47,-1623.11 131.47,-1623.11"/>
<text text-anchor="start" x="212.11" y="-1644.31" font-family="Helvetica,sans-Serif" font-weight="bold" font-size="32.00" fill="#ffffff"> &#160;&#160;&#160;&#160;&#160;&#160;Item &#160;&#160;&#160;&#160;&#160;&#160;</text>
<polygon fill="#e7e2dd" stroke="transparent" points="131.47,-1563.11 131.47,-1623.11 479.47,-1623.11 479.47,-1563.11 131.47,-1563.11"/>
<polygon fill="none" stroke="#29235c" points="131.47,-1563.11 131.47,-1623.11 479.47,-1623.11 479.47,-1563.11 131.47,-1563.11"/>
<text text-anchor="start" x="142.47" y="-1584.31" font-family="Helvetica,sans-Serif" font-weight="bold" font-size="32.00" fill="#29235c">id</text>
<text text-anchor="start" x="167.36" y="-1584.31" font-family="Helvetica,sans-Serif" font-size="32.00" fill="#29235c"> &#160;&#160;&#160;</text>
<text text-anchor="start" x="326.25" y="-1584.31" font-family="Helvetica,sans-Serif" font-style="italic" font-size="32.00" fill="#29235c">INTEGER</text>
<polygon fill="#e7e2dd" stroke="transparent" points="131.47,-1503.11 131.47,-1563.11 479.47,-1563.11 479.47,-1503.11 131.47,-1503.11"/>
<polygon fill="none" stroke="#29235c" points="131.47,-1503.11 131.47,-1563.11 479.47,-1563.11 479.47,-1503.11 131.47,-1503.11"/>
<text text-anchor="start" x="142.47" y="-1523.31" font-family="Helvetica,sans-Serif" font-size="32.00" fill="#29235c">order_id &#160;&#160;&#160;</text>
<text text-anchor="start" x="326.25" y="-1524.31" font-family="Helvetica,sans-Serif" font-style="italic" font-size="32.00" fill="#29235c">INTEGER</text>
<polygon fill="#e7e2dd" stroke="transparent" points="131.47,-1443.11 131.47,-1503.11 479.47,-1503.11 479.47,-1443.11 131.47,-1443.11"/>
<polygon fill="none" stroke="#29235c" points="131.47,-1443.11 131.47,-1503.11 479.47,-1503.11 479.47,-1443.11 131.47,-1443.11"/>
<text text-anchor="start" x="141.99" y="-1463.31" font-family="Helvetica,sans-Serif" font-size="32.00" fill="#29235c">product_id &#160;&#160;&#160;</text>
<text text-anchor="start" x="326.36" y="-1464.31" font-family="Helvetica,sans-Serif" font-style="italic" font-size="32.00" fill="#29235c">INTEGER</text>
<polygon fill="#e7e2dd" stroke="transparent" points="131.47,-1383.11 131.47,-1443.11 479.47,-1443.11 479.47,-1383.11 131.47,-1383.11"/>
<polygon fill="none" stroke="#29235c" points="131.47,-1383.11 131.47,-1443.11 479.47,-1443.11 479.47,-1383.11 131.47,-1383.11"/>
<text text-anchor="start" x="142.47" y="-1403.31" font-family="Helvetica,sans-Serif" font-size="32.00" fill="#29235c">quantity &#160;&#160;&#160;</text>
<text text-anchor="start" x="326.25" y="-1404.31" font-family="Helvetica,sans-Serif" font-style="italic" font-size="32.00" fill="#29235c">INTEGER</text>
<polygon fill="#e7e2dd" stroke="transparent" points="131.47,-1323.11 131.47,-1383.11 479.47,-1383.11 479.47,-1323.11 131.47,-1323.11"/>
<polygon fill="none" stroke="#29235c" points="131.47,-1323.11 131.47,-1383.11 479.47,-1383.11 479.47,-1323.11 131.47,-1323.11"/>
<text text-anchor="start" x="142.47" y="-1343.31" font-family="Helvetica,sans-Serif" font-size="32.00" fill="#29235c">unit_price &#160;&#160;&#160;</text>
<text text-anchor="start" x="365.35" y="-1344.31" font-family="Helvetica,sans-Serif" font-style="italic" font-size="32.00" fill="#29235c">FLOAT</text>
<polygon fill="#e7e2dd" stroke="transparent" points="131.47,-1263.11 131.47,-1323.11 479.47,-1323.11 479.47,-1263.11 131.47,-1263.11"/>
<polygon fill="none" stroke="#29235c" points="131.47,-1263.11 131.47,-1323.11 479.47,-1323.11 479.47,-1263.11 131.47,-1263.11"/>
<text text-anchor="start" x="142.47" y="-1283.31" font-family="Helvetica,sans-Serif" font-size="32.00" fill="#29235c">amount &#160;&#160;&#160;</text>
<text text-anchor="start" x="365.35" y="-1284.31" font-family="Helvetica,sans-Serif" font-style="italic" font-size="32.00" fill="#29235c">FLOAT</text>
<polygon fill="none" stroke="#29235c" stroke-width="2" points="130.47,-1262.11 130.47,-1684.11 480.47,-1684.11 480.47,-1262.11 130.47,-1262.11"/>
</g>
<!-- Item&#45;&gt;Product -->
<!-- Item&#45;&gt;Product -->
<g id="edge6" class="edge">
<title>Item:e&#45;&gt;Product:w</title>
<path fill="none" stroke="#29235c" stroke-width="3" d="M480.47,-1473.11C723.32,-1473.11 548.45,-1026.04 779.47,-1013.38"/>
<polygon fill="#29235c" stroke="#29235c" stroke-width="3" points="779.78,-1016.87 789.68,-1013.11 779.59,-1009.88 779.78,-1016.87"/>
<text text-anchor="middle" x="783.46" y="-1022.71" font-family="Helvetica,sans-Serif" font-size="32.00" fill="#29235c">*</text>
<text text-anchor="middle" x="471.58" y="-1444.31" font-family="Helvetica,sans-Serif" font-size="32.00" fill="#29235c">1</text>
</g>
<!-- Order -->
<g id="Order" class="node">
<title>Order</title>
<ellipse fill="none" stroke="black" stroke-width="0" cx="939.68" cy="-1503.11" rx="292.98" ry="257.27"/>
<polygon fill="#1d71b8" stroke="transparent" points="734.68,-1623.11 734.68,-1683.11 1144.68,-1683.11 1144.68,-1623.11 734.68,-1623.11"/>
<polygon fill="none" stroke="#29235c" points="734.68,-1623.11 734.68,-1683.11 1144.68,-1683.11 1144.68,-1623.11 734.68,-1623.11"/>
<text text-anchor="start" x="836.54" y="-1644.31" font-family="Helvetica,sans-Serif" font-weight="bold" font-size="32.00" fill="#ffffff"> &#160;&#160;&#160;&#160;&#160;&#160;Order &#160;&#160;&#160;&#160;&#160;&#160;</text>
<polygon fill="#e7e2dd" stroke="transparent" points="734.68,-1563.11 734.68,-1623.11 1144.68,-1623.11 1144.68,-1563.11 734.68,-1563.11"/>
<polygon fill="none" stroke="#29235c" points="734.68,-1563.11 734.68,-1623.11 1144.68,-1623.11 1144.68,-1563.11 734.68,-1563.11"/>
<text text-anchor="start" x="745.68" y="-1584.31" font-family="Helvetica,sans-Serif" font-weight="bold" font-size="32.00" fill="#29235c">id</text>
<text text-anchor="start" x="770.57" y="-1584.31" font-family="Helvetica,sans-Serif" font-size="32.00" fill="#29235c"> &#160;&#160;&#160;</text>
<text text-anchor="start" x="991.46" y="-1584.31" font-family="Helvetica,sans-Serif" font-style="italic" font-size="32.00" fill="#29235c">INTEGER</text>
<polygon fill="#e7e2dd" stroke="transparent" points="734.68,-1503.11 734.68,-1563.11 1144.68,-1563.11 1144.68,-1503.11 734.68,-1503.11"/>
<polygon fill="none" stroke="#29235c" points="734.68,-1503.11 734.68,-1563.11 1144.68,-1563.11 1144.68,-1503.11 734.68,-1503.11"/>
<text text-anchor="start" x="745.68" y="-1523.31" font-family="Helvetica,sans-Serif" font-size="32.00" fill="#29235c">customer_id &#160;&#160;&#160;</text>
<text text-anchor="start" x="991.46" y="-1524.31" font-family="Helvetica,sans-Serif" font-style="italic" font-size="32.00" fill="#29235c">INTEGER</text>
<polygon fill="#e7e2dd" stroke="transparent" points="734.68,-1443.11 734.68,-1503.11 1144.68,-1503.11 1144.68,-1443.11 734.68,-1443.11"/>
<polygon fill="none" stroke="#29235c" points="734.68,-1443.11 734.68,-1503.11 1144.68,-1503.11 1144.68,-1443.11 734.68,-1443.11"/>
<text text-anchor="start" x="745.68" y="-1463.31" font-family="Helvetica,sans-Serif" font-size="32.00" fill="#29235c">amount_total &#160;&#160;&#160;</text>
<text text-anchor="start" x="1030.56" y="-1464.31" font-family="Helvetica,sans-Serif" font-style="italic" font-size="32.00" fill="#29235c">FLOAT</text>
<polygon fill="#e7e2dd" stroke="transparent" points="734.68,-1383.11 734.68,-1443.11 1144.68,-1443.11 1144.68,-1383.11 734.68,-1383.11"/>
<polygon fill="none" stroke="#29235c" points="734.68,-1383.11 734.68,-1443.11 1144.68,-1443.11 1144.68,-1383.11 734.68,-1383.11"/>
<text text-anchor="start" x="745.35" y="-1403.31" font-family="Helvetica,sans-Serif" font-size="32.00" fill="#29235c">date_shipped &#160;&#160;&#160;</text>
<text text-anchor="start" x="972.3" y="-1404.31" font-family="Helvetica,sans-Serif" font-style="italic" font-size="32.00" fill="#29235c">DATETIME</text>
<polygon fill="#e7e2dd" stroke="transparent" points="734.68,-1323.11 734.68,-1383.11 1144.68,-1383.11 1144.68,-1323.11 734.68,-1323.11"/>
<polygon fill="none" stroke="#29235c" points="734.68,-1323.11 734.68,-1383.11 1144.68,-1383.11 1144.68,-1323.11 734.68,-1323.11"/>
<text text-anchor="start" x="745.68" y="-1343.31" font-family="Helvetica,sans-Serif" font-size="32.00" fill="#29235c">notes &#160;&#160;&#160;</text>
<text text-anchor="start" x="977.26" y="-1344.31" font-family="Helvetica,sans-Serif" font-style="italic" font-size="32.00" fill="#29235c">VARCHAR</text>
<polygon fill="none" stroke="#29235c" stroke-width="2" points="733.68,-1322.11 733.68,-1684.11 1145.68,-1684.11 1145.68,-1322.11 733.68,-1322.11"/>
</g>
<!-- Item&#45;&gt;Order -->
<!-- Item&#45;&gt;Order -->
<g id="edge4" class="edge">
<title>Item:e&#45;&gt;Order:w</title>
<path fill="none" stroke="#29235c" stroke-width="3" d="M480.47,-1533.11C592.62,-1533.11 616.62,-1589.53 723.43,-1592.95"/>
<polygon fill="#29235c" stroke="#29235c" stroke-width="3" points="723.63,-1596.45 733.68,-1593.11 723.74,-1589.45 723.63,-1596.45"/>
<text text-anchor="middle" x="727.46" y="-1602.71" font-family="Helvetica,sans-Serif" font-size="32.00" fill="#29235c">*</text>
<text text-anchor="middle" x="471.58" y="-1504.31" font-family="Helvetica,sans-Serif" font-size="32.00" fill="#29235c">1</text>
</g>
<!-- Order&#45;&gt;Customer -->
<!-- Order&#45;&gt;Customer -->
<g id="edge8" class="edge">
<title>Order:e&#45;&gt;Customer:w</title>
<path fill="none" stroke="#29235c" stroke-width="3" d="M1145.68,-1533.11C1335.31,-1533.11 1149.43,-715.47 1325.49,-685.93"/>
<polygon fill="#29235c" stroke="#29235c" stroke-width="3" points="1325.89,-689.41 1335.58,-685.11 1325.33,-682.43 1325.89,-689.41"/>
<text text-anchor="middle" x="1329.36" y="-656.31" font-family="Helvetica,sans-Serif" font-size="32.00" fill="#29235c">*</text>
<text text-anchor="middle" x="1136.79" y="-1504.31" font-family="Helvetica,sans-Serif" font-size="32.00" fill="#29235c">1</text>
</g>
<!-- Location -->
<g id="Location" class="node">
<title>Location</title>
<ellipse fill="none" stroke="black" stroke-width="0" cx="305.47" cy="-2562.11" rx="234.1" ry="130.22"/>
<polygon fill="#1d71b8" stroke="transparent" points="142.47,-2592.11 142.47,-2652.11 469.47,-2652.11 469.47,-2592.11 142.47,-2592.11"/>
<polygon fill="none" stroke="#29235c" points="142.47,-2592.11 142.47,-2652.11 469.47,-2652.11 469.47,-2592.11 142.47,-2592.11"/>
<text text-anchor="start" x="183.25" y="-2613.31" font-family="Helvetica,sans-Serif" font-weight="bold" font-size="32.00" fill="#ffffff"> &#160;&#160;&#160;&#160;&#160;&#160;Location &#160;&#160;&#160;&#160;&#160;&#160;</text>
<polygon fill="#e7e2dd" stroke="transparent" points="142.47,-2532.11 142.47,-2592.11 469.47,-2592.11 469.47,-2532.11 142.47,-2532.11"/>
<polygon fill="none" stroke="#29235c" points="142.47,-2532.11 142.47,-2592.11 469.47,-2592.11 469.47,-2532.11 142.47,-2532.11"/>
<text text-anchor="start" x="153.47" y="-2553.31" font-family="Helvetica,sans-Serif" font-weight="bold" font-size="32.00" fill="#29235c">id</text>
<text text-anchor="start" x="178.36" y="-2553.31" font-family="Helvetica,sans-Serif" font-size="32.00" fill="#29235c"> &#160;&#160;&#160;</text>
<text text-anchor="start" x="316.25" y="-2553.31" font-family="Helvetica,sans-Serif" font-style="italic" font-size="32.00" fill="#29235c">INTEGER</text>
<polygon fill="#e7e2dd" stroke="transparent" points="142.47,-2472.11 142.47,-2532.11 469.47,-2532.11 469.47,-2472.11 142.47,-2472.11"/>
<polygon fill="none" stroke="#29235c" points="142.47,-2472.11 142.47,-2532.11 469.47,-2532.11 469.47,-2472.11 142.47,-2472.11"/>
<text text-anchor="start" x="153.28" y="-2492.31" font-family="Helvetica,sans-Serif" font-size="32.00" fill="#29235c">address &#160;&#160;&#160;</text>
<text text-anchor="start" x="302.26" y="-2493.31" font-family="Helvetica,sans-Serif" font-style="italic" font-size="32.00" fill="#29235c">VARCHAR</text>
<polygon fill="none" stroke="#29235c" stroke-width="2" points="140.97,-2471.11 140.97,-2653.11 469.97,-2653.11 469.97,-2471.11 140.97,-2471.11"/>
</g>
<!-- Payment -->
<g id="Payment" class="node">
<title>Payment</title>
<ellipse fill="none" stroke="black" stroke-width="0" cx="305.47" cy="-1963.11" rx="226.05" ry="172.57"/>
<polygon fill="#1d71b8" stroke="transparent" points="147.47,-2023.11 147.47,-2083.11 463.47,-2083.11 463.47,-2023.11 147.47,-2023.11"/>
<polygon fill="none" stroke="#29235c" points="147.47,-2023.11 147.47,-2083.11 463.47,-2083.11 463.47,-2023.11 147.47,-2023.11"/>
<text text-anchor="start" x="180.09" y="-2044.31" font-family="Helvetica,sans-Serif" font-weight="bold" font-size="32.00" fill="#ffffff"> &#160;&#160;&#160;&#160;&#160;&#160;Payment &#160;&#160;&#160;&#160;&#160;&#160;</text>
<polygon fill="#e7e2dd" stroke="transparent" points="147.47,-1963.11 147.47,-2023.11 463.47,-2023.11 463.47,-1963.11 147.47,-1963.11"/>
<polygon fill="none" stroke="#29235c" points="147.47,-1963.11 147.47,-2023.11 463.47,-2023.11 463.47,-1963.11 147.47,-1963.11"/>
<text text-anchor="start" x="158.47" y="-1984.31" font-family="Helvetica,sans-Serif" font-weight="bold" font-size="32.00" fill="#29235c">id</text>
<text text-anchor="start" x="183.36" y="-1984.31" font-family="Helvetica,sans-Serif" font-size="32.00" fill="#29235c"> &#160;&#160;&#160;</text>
<text text-anchor="start" x="310.25" y="-1984.31" font-family="Helvetica,sans-Serif" font-style="italic" font-size="32.00" fill="#29235c">INTEGER</text>
<polygon fill="#e7e2dd" stroke="transparent" points="147.47,-1903.11 147.47,-1963.11 463.47,-1963.11 463.47,-1903.11 147.47,-1903.11"/>
<polygon fill="none" stroke="#29235c" points="147.47,-1903.11 147.47,-1963.11 463.47,-1963.11 463.47,-1903.11 147.47,-1903.11"/>
<text text-anchor="start" x="158.47" y="-1923.31" font-family="Helvetica,sans-Serif" font-size="32.00" fill="#29235c">amount &#160;&#160;&#160;</text>
<text text-anchor="start" x="349.35" y="-1924.31" font-family="Helvetica,sans-Serif" font-style="italic" font-size="32.00" fill="#29235c">FLOAT</text>
<polygon fill="#e7e2dd" stroke="transparent" points="147.47,-1843.11 147.47,-1903.11 463.47,-1903.11 463.47,-1843.11 147.47,-1843.11"/>
<polygon fill="none" stroke="#29235c" points="147.47,-1843.11 147.47,-1903.11 463.47,-1903.11 463.47,-1843.11 147.47,-1843.11"/>
<text text-anchor="start" x="158.01" y="-1863.31" font-family="Helvetica,sans-Serif" font-size="32.00" fill="#29235c">order_id &#160;&#160;&#160;</text>
<text text-anchor="start" x="310.36" y="-1864.31" font-family="Helvetica,sans-Serif" font-style="italic" font-size="32.00" fill="#29235c">INTEGER</text>
<polygon fill="none" stroke="#29235c" stroke-width="2" points="146.47,-1842.11 146.47,-2084.11 464.47,-2084.11 464.47,-1842.11 146.47,-1842.11"/>
</g>
<!-- Payment&#45;&gt;Order -->
<!-- Payment&#45;&gt;Order -->
<g id="edge10" class="edge">
<title>Payment:e&#45;&gt;Order:w</title>
<path fill="none" stroke="#29235c" stroke-width="3" d="M464.47,-1873.11C541.11,-1873.11 556.21,-1835.75 610.94,-1782.11 679.96,-1714.46 636.82,-1601.41 723.66,-1593.54"/>
<polygon fill="#29235c" stroke="#29235c" stroke-width="3" points="723.84,-1597.04 733.68,-1593.11 723.54,-1590.04 723.84,-1597.04"/>
<text text-anchor="middle" x="727.46" y="-1564.31" font-family="Helvetica,sans-Serif" font-size="32.00" fill="#29235c">*</text>
<text text-anchor="middle" x="455.58" y="-1882.71" font-family="Helvetica,sans-Serif" font-size="32.00" fill="#29235c">1</text>
</g>
<!-- Review -->
<g id="Review" class="node">
<title>Review</title>
<ellipse fill="none" stroke="black" stroke-width="0" cx="305.47" cy="-535.11" rx="266.66" ry="257.27"/>
<polygon fill="#1d71b8" stroke="transparent" points="119.47,-655.11 119.47,-715.11 492.47,-715.11 492.47,-655.11 119.47,-655.11"/>
<polygon fill="none" stroke="#29235c" points="119.47,-655.11 119.47,-715.11 492.47,-715.11 492.47,-655.11 119.47,-655.11"/>
<text text-anchor="start" x="191.28" y="-676.31" font-family="Helvetica,sans-Serif" font-weight="bold" font-size="32.00" fill="#ffffff"> &#160;&#160;&#160;&#160;&#160;&#160;Review &#160;&#160;&#160;&#160;&#160;&#160;</text>
<polygon fill="#e7e2dd" stroke="transparent" points="119.47,-595.11 119.47,-655.11 492.47,-655.11 492.47,-595.11 119.47,-595.11"/>
<polygon fill="none" stroke="#29235c" points="119.47,-595.11 119.47,-655.11 492.47,-655.11 492.47,-595.11 119.47,-595.11"/>
<text text-anchor="start" x="130.47" y="-616.31" font-family="Helvetica,sans-Serif" font-weight="bold" font-size="32.00" fill="#29235c">id</text>
<text text-anchor="start" x="155.36" y="-616.31" font-family="Helvetica,sans-Serif" font-size="32.00" fill="#29235c"> &#160;&#160;&#160;</text>
<text text-anchor="start" x="339.25" y="-616.31" font-family="Helvetica,sans-Serif" font-style="italic" font-size="32.00" fill="#29235c">INTEGER</text>
<polygon fill="#e7e2dd" stroke="transparent" points="119.47,-535.11 119.47,-595.11 492.47,-595.11 492.47,-535.11 119.47,-535.11"/>
<polygon fill="none" stroke="#29235c" points="119.47,-535.11 119.47,-595.11 492.47,-595.11 492.47,-535.11 119.47,-535.11"/>
<text text-anchor="start" x="130.47" y="-555.31" font-family="Helvetica,sans-Serif" font-size="32.00" fill="#29235c">product_id &#160;&#160;&#160;</text>
<text text-anchor="start" x="339.25" y="-556.31" font-family="Helvetica,sans-Serif" font-style="italic" font-size="32.00" fill="#29235c">INTEGER</text>
<polygon fill="#e7e2dd" stroke="transparent" points="119.47,-475.11 119.47,-535.11 492.47,-535.11 492.47,-475.11 119.47,-475.11"/>
<polygon fill="none" stroke="#29235c" points="119.47,-475.11 119.47,-535.11 492.47,-535.11 492.47,-475.11 119.47,-475.11"/>
<text text-anchor="start" x="130.06" y="-495.31" font-family="Helvetica,sans-Serif" font-size="32.00" fill="#29235c">customer_id &#160;&#160;&#160;</text>
<text text-anchor="start" x="339.36" y="-496.31" font-family="Helvetica,sans-Serif" font-style="italic" font-size="32.00" fill="#29235c">INTEGER</text>
<polygon fill="#e7e2dd" stroke="transparent" points="119.47,-415.11 119.47,-475.11 492.47,-475.11 492.47,-415.11 119.47,-415.11"/>
<polygon fill="none" stroke="#29235c" points="119.47,-415.11 119.47,-475.11 492.47,-475.11 492.47,-415.11 119.47,-415.11"/>
<text text-anchor="start" x="130.47" y="-435.31" font-family="Helvetica,sans-Serif" font-size="32.00" fill="#29235c">rating &#160;&#160;&#160;</text>
<text text-anchor="start" x="339.25" y="-436.31" font-family="Helvetica,sans-Serif" font-style="italic" font-size="32.00" fill="#29235c">INTEGER</text>
<polygon fill="#e7e2dd" stroke="transparent" points="119.47,-355.11 119.47,-415.11 492.47,-415.11 492.47,-355.11 119.47,-355.11"/>
<polygon fill="none" stroke="#29235c" points="119.47,-355.11 119.47,-415.11 492.47,-415.11 492.47,-355.11 119.47,-355.11"/>
<text text-anchor="start" x="130.47" y="-375.31" font-family="Helvetica,sans-Serif" font-size="32.00" fill="#29235c">comment &#160;&#160;&#160;</text>
<text text-anchor="start" x="325.04" y="-376.31" font-family="Helvetica,sans-Serif" font-style="italic" font-size="32.00" fill="#29235c">VARCHAR</text>
<polygon fill="none" stroke="#29235c" stroke-width="2" points="117.97,-354.11 117.97,-716.11 492.97,-716.11 492.97,-354.11 117.97,-354.11"/>
</g>
<!-- Review&#45;&gt;Customer -->
<!-- Review&#45;&gt;Customer -->
<g id="edge12" class="edge">
<title>Review:e&#45;&gt;Customer:w</title>
<path fill="none" stroke="#29235c" stroke-width="3" d="M493.47,-505.11C872.83,-505.11 951.48,-681.96 1325.56,-685.07"/>
<polygon fill="#29235c" stroke="#29235c" stroke-width="3" points="1325.56,-688.57 1335.58,-685.11 1325.59,-681.57 1325.56,-688.57"/>
<text text-anchor="middle" x="1329.36" y="-694.71" font-family="Helvetica,sans-Serif" font-size="32.00" fill="#29235c">*</text>
<text text-anchor="middle" x="484.58" y="-476.31" font-family="Helvetica,sans-Serif" font-size="32.00" fill="#29235c">1</text>
</g>
<!-- Review&#45;&gt;Product -->
<!-- Review&#45;&gt;Product -->
<g id="edge14" class="edge">
<title>Review:e&#45;&gt;Product:w</title>
<path fill="none" stroke="#29235c" stroke-width="3" d="M493.47,-565.11C728.67,-565.11 556.2,-1000.08 779.46,-1012.82"/>
<polygon fill="#29235c" stroke="#29235c" stroke-width="3" points="779.59,-1016.33 789.68,-1013.11 779.78,-1009.33 779.59,-1016.33"/>
<text text-anchor="middle" x="795.9" y="-984.31" font-family="Helvetica,sans-Serif" font-size="32.00" fill="#29235c">*</text>
<text text-anchor="middle" x="484.58" y="-536.31" font-family="Helvetica,sans-Serif" font-size="32.00" fill="#29235c">1</text>
</g>
<!-- Shipment -->
<g id="Shipment" class="node">
<title>Shipment</title>
<ellipse fill="none" stroke="black" stroke-width="0" cx="305.47" cy="-2840.11" rx="305.44" ry="130.22"/>
<polygon fill="#1d71b8" stroke="transparent" points="91.47,-2870.11 91.47,-2930.11 519.47,-2930.11 519.47,-2870.11 91.47,-2870.11"/>
<polygon fill="none" stroke="#29235c" points="91.47,-2870.11 91.47,-2930.11 519.47,-2930.11 519.47,-2870.11 91.47,-2870.11"/>
<text text-anchor="start" x="175.65" y="-2891.31" font-family="Helvetica,sans-Serif" font-weight="bold" font-size="32.00" fill="#ffffff"> &#160;&#160;&#160;&#160;&#160;&#160;Shipment &#160;&#160;&#160;&#160;&#160;&#160;</text>
<polygon fill="#e7e2dd" stroke="transparent" points="91.47,-2810.11 91.47,-2870.11 519.47,-2870.11 519.47,-2810.11 91.47,-2810.11"/>
<polygon fill="none" stroke="#29235c" points="91.47,-2810.11 91.47,-2870.11 519.47,-2870.11 519.47,-2810.11 91.47,-2810.11"/>
<text text-anchor="start" x="102.47" y="-2831.31" font-family="Helvetica,sans-Serif" font-weight="bold" font-size="32.00" fill="#29235c">id</text>
<text text-anchor="start" x="127.36" y="-2831.31" font-family="Helvetica,sans-Serif" font-size="32.00" fill="#29235c"> &#160;&#160;&#160;</text>
<text text-anchor="start" x="366.25" y="-2831.31" font-family="Helvetica,sans-Serif" font-style="italic" font-size="32.00" fill="#29235c">INTEGER</text>
<polygon fill="#e7e2dd" stroke="transparent" points="91.47,-2750.11 91.47,-2810.11 519.47,-2810.11 519.47,-2750.11 91.47,-2750.11"/>
<polygon fill="none" stroke="#29235c" points="91.47,-2750.11 91.47,-2810.11 519.47,-2810.11 519.47,-2750.11 91.47,-2750.11"/>
<text text-anchor="start" x="102.26" y="-2770.31" font-family="Helvetica,sans-Serif" font-size="32.00" fill="#29235c">shipment_date &#160;&#160;&#160;</text>
<text text-anchor="start" x="347.09" y="-2771.31" font-family="Helvetica,sans-Serif" font-style="italic" font-size="32.00" fill="#29235c">DATETIME</text>
<polygon fill="none" stroke="#29235c" stroke-width="2" points="90.47,-2749.11 90.47,-2931.11 520.47,-2931.11 520.47,-2749.11 90.47,-2749.11"/>
</g>
<!-- Supplier -->
<g id="Supplier" class="node">
<title>Supplier</title>
<ellipse fill="none" stroke="black" stroke-width="0" cx="305.47" cy="-3118.11" rx="210.02" ry="130.22"/>
<polygon fill="#1d71b8" stroke="transparent" points="159.47,-3148.11 159.47,-3208.11 452.47,-3208.11 452.47,-3148.11 159.47,-3148.11"/>
<polygon fill="none" stroke="#29235c" points="159.47,-3148.11 159.47,-3208.11 452.47,-3208.11 452.47,-3148.11 159.47,-3148.11"/>
<text text-anchor="start" x="185.05" y="-3169.31" font-family="Helvetica,sans-Serif" font-weight="bold" font-size="32.00" fill="#ffffff"> &#160;&#160;&#160;&#160;&#160;&#160;Supplier &#160;&#160;&#160;&#160;&#160;&#160;</text>
<polygon fill="#e7e2dd" stroke="transparent" points="159.47,-3088.11 159.47,-3148.11 452.47,-3148.11 452.47,-3088.11 159.47,-3088.11"/>
<polygon fill="none" stroke="#29235c" points="159.47,-3088.11 159.47,-3148.11 452.47,-3148.11 452.47,-3088.11 159.47,-3088.11"/>
<text text-anchor="start" x="170.47" y="-3109.31" font-family="Helvetica,sans-Serif" font-weight="bold" font-size="32.00" fill="#29235c">id</text>
<text text-anchor="start" x="195.36" y="-3109.31" font-family="Helvetica,sans-Serif" font-size="32.00" fill="#29235c"> &#160;&#160;&#160;</text>
<text text-anchor="start" x="299.25" y="-3109.31" font-family="Helvetica,sans-Serif" font-style="italic" font-size="32.00" fill="#29235c">INTEGER</text>
<polygon fill="#e7e2dd" stroke="transparent" points="159.47,-3028.11 159.47,-3088.11 452.47,-3088.11 452.47,-3028.11 159.47,-3028.11"/>
<polygon fill="none" stroke="#29235c" points="159.47,-3028.11 159.47,-3088.11 452.47,-3088.11 452.47,-3028.11 159.47,-3028.11"/>
<text text-anchor="start" x="170.17" y="-3048.31" font-family="Helvetica,sans-Serif" font-size="32.00" fill="#29235c">name &#160;&#160;&#160;</text>
<text text-anchor="start" x="285.26" y="-3049.31" font-family="Helvetica,sans-Serif" font-style="italic" font-size="32.00" fill="#29235c">VARCHAR</text>
<polygon fill="none" stroke="#29235c" stroke-width="2" points="157.97,-3027.11 157.97,-3209.11 452.97,-3209.11 452.97,-3027.11 157.97,-3027.11"/>
</g>
</g>
</svg>
